<svg id="visual" viewBox="0 0 960 540" width="960" height="540" xmlns="http://www.w3.org/2000/svg" xmlns:xlink="http://www.w3.org/1999/xlink" version="1.1"><rect x="0" y="0" width="960" height="540" fill="#00120000"></rect><defs><linearGradient id="grad1_0" x1="43.8%" y1="0%" x2="100%" y2="100%"><stop offset="14.444444444444446%" stop-color="#00120000" stop-opacity="1"></stop><stop offset="85.55555555555554%" stop-color="#00120000" stop-opacity="1"></stop></linearGradient></defs><defs><linearGradient id="grad2_0" x1="0%" y1="0%" x2="56.3%" y2="100%"><stop offset="14.444444444444446%" stop-color="#00120000" stop-opacity="1"></stop><stop offset="85.55555555555554%" stop-color="#00120000" stop-opacity="1"></stop></linearGradient></defs><g transform="translate(960, 0)"><path d="M0 486C-63.3 479.4 -126.6 472.7 -186 449C-245.3 425.3 -300.7 384.4 -333.8 333.8C-366.8 283.1 -377.5 222.6 -399.1 165.3C-420.8 108.1 -453.4 54 -486 0L0 0Z" fill="#FBD85D"></path></g><g transform="translate(0, 540)"><path d="M0 -486C47.7 -439.2 95.4 -392.4 155 -374.2C214.6 -355.9 286.2 -366.2 339.4 -339.4C392.7 -312.6 427.6 -248.7 449 -186C470.4 -123.2 478.2 -61.6 486 0L0 0Z" fill="#FBD85D"></path></g></svg>